<?xml version="1.0" standalone="no"?>
<!DOCTYPE svg PUBLIC "-//W3C//DTD SVG 20010904//EN"
 "http://www.w3.org/TR/2001/REC-SVG-20010904/DTD/svg10.dtd">
<svg version="1.0" xmlns="http://www.w3.org/2000/svg"
 width="225.000000pt" height="225.000000pt" viewBox="0 0 225.000000 225.000000"
 preserveAspectRatio="xMidYMid meet">
<metadata>
Created by potrace 1.11, written by Peter Selinger 2001-2013
</metadata>
<g transform="translate(0.000000,225.000000) scale(0.100000,-0.100000)"
fill="#000000" stroke="none">
<path d="M1801 2228 c-4 -13 -18 -59 -31 -104 l-23 -81 -141 -7 c-78 -4 -163
-12 -191 -17 -27 -6 -288 -14 -580 -19 -291 -5 -558 -13 -591 -17 -52 -7 -65
-13 -88 -40 -54 -65 -56 -196 -5 -524 7 -47 7 -101 -1 -185 -26 -257 -29 -500
-9 -714 7 -76 9 -184 4 -275 -3 -82 -3 -158 1 -168 19 -50 71 -54 444 -38 129
5 440 13 690 17 446 7 456 7 500 29 77 39 82 48 98 208 7 78 13 160 13 182 -1
22 -1 121 -1 220 0 99 -8 255 -17 347 l-16 167 23 81 c19 67 22 92 16 153 -16
152 -9 195 70 462 41 138 74 258 74 267 0 17 -51 42 -130 63 -77 21 -99 19
-109 -7z m-71 -227 c0 -10 -135 -466 -149 -503 -9 -23 -18 -27 -78 -37 -65
-10 -373 -23 -907 -37 -173 -5 -243 -10 -230 -17 29 -16 1116 19 1181 39 l23
6 -15 -48 c-8 -27 -22 -73 -31 -101 -8 -29 -19 -53 -24 -53 -5 0 -21 10 -35
23 l-27 22 31 35 c32 37 34 48 10 63 -10 6 -31 2 -67 -14 -44 -21 -53 -29 -59
-59 -13 -65 -9 -125 7 -125 8 0 16 9 18 20 7 45 13 65 20 65 4 -1 27 -19 51
-40 35 -32 42 -44 37 -64 -8 -34 -21 -35 -620 -46 -339 -7 -513 -13 -520 -21
-8 -7 49 -9 199 -5 598 16 928 18 923 4 -3 -7 -23 -72 -44 -144 l-39 -132 -60
-6 c-33 -3 -208 -8 -390 -11 -442 -7 -607 -15 -576 -26 22 -9 479 1 869 18
129 5 152 4 148 -8 -31 -89 -76 -258 -76 -288 l0 -38 -51 -7 c-29 -4 -221 -11
-428 -16 -378 -9 -456 -14 -467 -32 -4 -6 21 -8 67 -4 41 3 155 8 254 11 99 3
278 10 399 16 140 7 222 7 228 1 12 -12 16 -188 5 -223 -8 -23 -5 -28 20 -36
38 -14 70 -10 193 22 134 35 192 63 260 124 l55 50 8 -32 c9 -38 0 -151 -14
-188 -7 -17 -27 -33 -57 -46 -44 -19 -74 -21 -412 -27 -201 -3 -539 -11 -752
-17 -362 -11 -389 -11 -413 5 l-27 18 7 147 c5 98 3 190 -5 272 -7 68 -13 187
-14 264 -1 133 2 213 19 490 5 89 2 154 -10 250 -24 190 -30 338 -15 375 17
41 57 60 127 60 32 0 74 5 93 11 24 8 184 13 500 14 363 2 483 6 545 17 88 17
315 23 315 9z m139 -586 c0 -38 -7 -98 -17 -131 -18 -63 -17 -81 3 -344 4 -53
4 -139 0 -193 l-7 -97 -28 0 c-30 0 -143 -49 -192 -83 -16 -10 -28 -15 -28
-11 0 4 -9 -4 -21 -17 l-21 -24 8 30 c4 17 19 71 34 120 15 50 78 264 141 477
118 400 126 418 128 273z m-429 -70 c0 -2 -10 -10 -22 -16 -21 -11 -22 -11 -9
4 13 16 31 23 31 12z"/>
<path d="M1395 1734 c-77 -14 -481 -36 -737 -41 -170 -3 -308 -10 -308 -15 0
-10 343 -10 565 2 300 15 669 42 690 50 19 8 -166 11 -210 4z"/>
<path d="M1030 1379 c-60 -21 -85 -39 -56 -39 31 0 186 34 186 41 0 6 -53 20
-69 18 -3 0 -31 -9 -61 -20z"/>
<path d="M1230 1381 c-20 -4 -41 -10 -47 -14 -12 -7 -21 -54 -25 -132 l-3 -50
49 -3 c68 -4 96 4 96 28 0 23 -10 24 -60 10 -25 -7 -36 -7 -42 3 -16 25 -6 34
54 48 81 18 90 40 14 32 -52 -5 -55 -4 -53 16 1 23 9 27 85 36 33 4 52 11 49
19 -4 13 -67 17 -117 7z"/>
<path d="M505 1370 c-74 -8 -105 -18 -105 -32 0 -7 20 -9 55 -6 l55 5 0 -57
c0 -82 -13 -95 -89 -87 -50 5 -61 4 -61 -8 0 -33 84 -46 148 -24 45 15 62 48
62 119 0 48 3 60 16 60 20 0 14 34 -6 36 -8 1 -42 -2 -75 -6z"/>
<path d="M845 1375 c-5 -2 -30 -9 -54 -15 -31 -8 -41 -14 -33 -22 8 -8 31 -7
84 3 40 7 81 13 91 11 9 -1 17 5 17 13 0 11 -12 15 -47 14 -27 0 -52 -2 -58
-4z"/>
<path d="M633 1320 c-58 -35 -58 -100 -1 -132 32 -19 40 -20 68 -8 34 14 60
55 60 95 0 18 -9 31 -32 45 -41 25 -55 25 -95 0z m75 -37 c15 -31 -1 -68 -30
-71 -32 -4 -44 24 -27 62 14 30 44 34 57 9z"/>
<path d="M836 1318 c-28 -90 -33 -158 -11 -158 8 0 15 5 15 10 0 6 6 10 13 10
17 0 17 142 0 147 -7 3 -15 -1 -17 -9z"/>
<path d="M1011 1280 c-17 -78 -15 -112 7 -108 11 2 17 13 18 33 1 17 5 51 9
78 6 39 5 47 -8 47 -10 0 -19 -16 -26 -50z"/>
</g>
</svg>
